<?xml version="1.0" encoding="UTF-8"?>
<svg version="1.1" xmlns="http://www.w3.org/2000/svg" width="512" height="512">
<path d="M0 0 C66.66 0 133.32 0 202 0 C199.75030061 11.24849696 199.75030061 11.24849696 198.07080078 16.45361328 C197.69424347 17.63029572 197.31768616 18.80697815 196.92971802 20.01931763 C196.5223642 21.27364594 196.11501038 22.52797424 195.6953125 23.8203125 C195.25962677 25.17608736 194.82449159 26.53203925 194.38986206 27.88815308 C193.46024424 30.78575544 192.52752489 33.68233234 191.59228516 36.578125 C189.3301671 43.58372945 187.0853066 50.5948716 184.83974457 57.60579681 C184.32500443 59.21271436 183.81007494 60.81957127 183.29496002 62.42636871 C178.32084018 77.94352001 173.44616621 93.49048923 168.60659027 109.0500412 C161.49926285 131.89741665 154.28842812 154.70976571 147 177.5 C139.11545857 202.15426724 131.33433307 226.83870343 123.63392258 251.55107307 C116.51466215 274.39689814 109.2949602 297.20969043 102 320 C101.34 320 100.68 320 100 320 C96.91319585 310.33443918 93.83018873 300.66767077 90.75 291 C90.51445782 290.26072392 90.27891563 289.52144783 90.03623581 288.75976944 C82.97405419 266.5908796 75.98049287 244.40177988 69.0625 222.1875 C62.13069725 199.92948741 55.10058849 177.70473137 48 155.5 C39.98103078 130.42190604 32.05968313 105.31528006 24.23144531 80.17700195 C23.42391274 77.58412077 22.61628075 74.99127058 21.80859375 72.3984375 C21.61068867 71.76299955 21.41278358 71.12756161 21.20888138 70.47286797 C18.36010715 61.32845361 15.48680964 52.1920462 12.59365273 43.06157875 C11.98034482 41.12582951 11.36755436 39.18991724 10.75492859 37.25395203 C8.85027493 31.23615256 6.94175889 25.21963477 5.02612305 19.20532227 C4.35575826 17.08876737 3.68558089 14.97215311 3.015625 12.85546875 C2.70734268 11.89319366 2.39906036 10.93091858 2.08143616 9.93948364 C1.80480637 9.06250824 1.52817657 8.18553284 1.24316406 7.28198242 C1.00148499 6.52237717 0.75980591 5.76277191 0.51080322 4.98014832 C0 3 0 3 0 0 Z " fill="#000000" transform="translate(155,153)"/>
<path d="M0 0 C44.88 0 89.76 0 136 0 C134.51113466 2.97773068 133.17453883 5.28245048 131.234375 7.9140625 C130.68152832 8.6654248 130.12868164 9.41678711 129.55908203 10.19091797 C128.96208496 10.99416504 128.36508789 11.79741211 127.75 12.625 C127.12593262 13.46820801 126.50186523 14.31141602 125.85888672 15.18017578 C121.1244726 21.55017961 116.28754081 27.83464538 111.39575195 34.08422852 C106.86359324 39.87570462 102.38906067 45.70887297 97.9375 51.5625 C97.26219238 52.45050293 96.58688477 53.33850586 95.89111328 54.25341797 C94.55735904 56.00757722 93.22369832 57.76180758 91.89013672 59.51611328 C89.1001303 63.18254641 86.30055665 66.84162304 83.5 70.5 C78.65810844 76.82682885 73.82695032 83.16176542 69 89.5 C63.65250766 96.52175464 58.29751323 103.53766351 52.93359375 110.546875 C48.61477149 116.19211687 44.30640882 121.84528482 40 127.5 C34.65250766 134.52175464 29.29751323 141.53766351 23.93359375 148.546875 C19.61477149 154.19211687 15.30640882 159.84528482 11 165.5 C5.65250766 172.52175464 0.29751323 179.53766351 -5.06640625 186.546875 C-9.38522851 192.19211687 -13.69359118 197.84528482 -18 203.5 C-23.34749234 210.52175464 -28.70248677 217.53766351 -34.06640625 224.546875 C-38.38522851 230.19211687 -42.69359118 235.84528482 -47 241.5 C-52.34527345 248.51884104 -57.69782952 255.53200514 -63.05981445 262.53808594 C-67.44433483 268.26883172 -71.81648098 274.00895247 -76.1875 279.75 C-82.10206561 287.51780557 -88.03477563 295.27101939 -94 303 C-95.21408551 299.35774346 -94.66972979 298.21948277 -93.50317383 294.61645508 C-93.14640564 293.49929108 -92.78963745 292.38212708 -92.42205811 291.23110962 C-91.82061981 289.39387833 -91.82061981 289.39387833 -91.20703125 287.51953125 C-90.78922483 286.22124607 -90.37227292 284.92268562 -89.95611572 283.62387085 C-89.05768567 280.82514361 -88.15396783 278.02820119 -87.24612427 275.23251343 C-85.79423349 270.76053777 -84.35452505 266.28470517 -82.91772461 261.80786133 C-82.67520242 261.05222869 -82.43268023 260.29659605 -82.18280888 259.51806545 C-81.68879104 257.97867973 -81.19482519 256.43927732 -80.70091057 254.89985847 C-79.94742979 252.55257045 -79.19285976 250.20563468 -78.43812561 247.85874939 C-73.97128283 233.96017578 -69.60947352 220.02999546 -65.27572632 206.08944702 C-57.95076467 182.52722625 -50.51561543 159.00207226 -43 135.5 C-35.69282848 112.64905463 -28.45594341 89.77768268 -21.3125 66.875 C-20.99833445 65.8678809 -20.99833445 65.8678809 -20.67782211 64.84041595 C-18.49214674 57.83350031 -16.30817001 50.82605606 -14.125 43.81835938 C-11.43009018 35.16931118 -8.72961673 26.52201895 -6.01864624 17.87799072 C-5.33768904 15.70536674 -4.65867534 13.53214203 -3.97973633 11.35888672 C-3.39615356 9.49901123 -3.39615356 9.49901123 -2.80078125 7.6015625 C-2.47247314 6.55307129 -2.14416504 5.50458008 -1.8059082 4.42431641 C-1 2 -1 2 0 0 Z " fill="#000000" transform="translate(376,153)"/>
<path d="M0 0 C44.88 0 89.76 0 136 0 C142.43678731 19.95404065 148.86522596 39.9099237 155.22312546 59.88910294 C155.89208153 61.99117561 156.56129195 64.09316721 157.23049927 66.19515991 C164.0766254 87.70372099 170.84042024 109.23700634 177.55269623 130.78767014 C184.05471953 151.662276 190.64787493 172.50614686 197.30661392 193.33127975 C204.79315036 216.74709912 212.23680521 240.17575764 219.58673096 263.63485718 C220.24372359 265.72998474 220.90215592 267.8246545 221.56103516 269.91918945 C222.77960543 273.79367283 223.99178839 277.67012389 225.203125 281.546875 C225.73900238 283.24822601 225.73900238 283.24822601 226.28570557 284.98394775 C228.14360753 290.95324133 229.74472532 296.87470959 231 303 C226.59135656 298.83167735 222.93928469 294.24538989 219.25 289.4375 C218.62875244 288.63320557 218.00750488 287.82891113 217.36743164 287.00024414 C213.30385318 281.72873174 209.28965102 276.42292324 205.3125 271.0859375 C202.54495648 267.39276286 199.74371849 263.72632655 196.9375 260.0625 C191.94872697 253.54894871 186.97038184 247.0275979 182 240.5 C177.17310241 234.16172486 172.34177987 227.82691435 167.5 221.5 C161.96991275 214.27365157 156.45455481 207.03615167 150.94140625 199.796875 C146.80019015 194.3600385 142.65347139 188.92747883 138.5 183.5 C132.96991275 176.27365157 127.45455481 169.03615167 121.94140625 161.796875 C117.80019015 156.3600385 113.65347139 150.92747883 109.5 145.5 C103.96991275 138.27365157 98.45455481 131.03615167 92.94140625 123.796875 C88.80019015 118.3600385 84.65347139 112.92747883 80.5 107.5 C74.96991275 100.27365157 69.45455481 93.03615167 63.94140625 85.796875 C59.80019015 80.3600385 55.65347139 74.92747883 51.5 69.5 C45.96991275 62.27365157 40.45455481 55.03615167 34.94140625 47.796875 C31.31981176 43.04222887 27.69539323 38.289793 24.06323242 33.54321289 C23.02891518 32.19131518 21.99521399 30.83894589 20.9621582 29.48608398 C17.86506142 25.43106255 14.75524588 21.3862268 11.63671875 17.34765625 C10.15358214 15.41931982 8.67050844 13.490935 7.1875 11.5625 C6.47464844 10.64339844 5.76179687 9.72429687 5.02734375 8.77734375 C4.3725 7.92398438 3.71765625 7.070625 3.04296875 6.19140625 C2.45539795 5.43029541 1.86782715 4.66918457 1.26245117 3.88500977 C0 2 0 2 0 0 Z " fill="#000000" transform="translate(0,153)"/>
<path d="M0 0 C3.20205982 1.41274016 5.35173535 3.10065465 7.82183838 5.56787109 C8.56778259 6.30817566 9.31372681 7.04848022 10.08227539 7.81121826 C11.29500122 9.03001678 11.29500122 9.03001678 12.53222656 10.2734375 C13.82057404 11.55652802 13.82057404 11.55652802 15.13494873 12.86553955 C17.48554731 15.20884725 19.83156038 17.55656401 22.17533588 19.90668488 C24.62803698 22.36445111 27.08561575 24.81733215 29.54241943 27.27099609 C33.6650231 31.389963 37.78339542 35.51312539 41.89941406 39.63867188 C46.66269469 44.41285093 51.43315716 49.17976272 56.20738626 53.94299126 C60.30453317 58.03107426 64.39778479 62.1230268 68.48778129 66.21826363 C70.93146104 68.66506617 73.37648333 71.11048597 75.82501984 73.5524292 C78.5508619 76.27144287 81.26851502 78.998549 83.98535156 81.7265625 C84.80193237 82.53909485 85.61851318 83.3516272 86.45983887 84.18878174 C87.19450378 84.9290863 87.9291687 85.66939087 88.68609619 86.43212891 C89.32984318 87.07662994 89.97359016 87.72113098 90.63684464 88.38516235 C92 90 92 90 92 92 C31.94 92 -28.12 92 -90 92 C-88.25307442 88.50614884 -87.08710715 86.83899574 -84.41867065 84.17816162 C-83.67547577 83.43221741 -82.93228088 82.68627319 -82.16656494 81.91772461 C-81.3508905 81.10924072 -80.53521606 80.30075684 -79.69482422 79.46777344 C-78.40691483 78.17942596 -78.40691483 78.17942596 -77.09298706 76.86505127 C-74.74138856 74.51460664 -72.38544268 72.16868541 -70.02745199 69.82466412 C-67.56283009 67.372552 -65.10387775 64.91476793 -62.64431763 62.45758057 C-57.98764113 57.8071181 -53.32589026 53.16177703 -48.66229355 48.51825547 C-43.35247752 43.23080081 -38.0483452 37.93766016 -32.74468207 32.64403486 C-21.83609884 21.75635189 -10.92040194 10.87582949 0 0 Z " fill="#000000" transform="translate(255,43)"/>
<path d="M0 0 C46.86 0 93.72 0 142 0 C140.61894314 3.45264216 139.32423797 6.38149288 137.5234375 9.5703125 C137.02602051 10.45243408 136.52860352 11.33455566 136.01611328 12.2434082 C135.4745459 13.1943335 134.93297852 14.14525879 134.375 15.125 C133.80378418 16.13199951 133.23256836 17.13899902 132.64404297 18.17651367 C127.57072789 27.079711 122.35401626 35.89537978 117.10742188 44.69726562 C113.65152611 50.50144089 110.22310111 56.31781109 106.859375 62.17578125 C106.3541481 63.05533226 106.3541481 63.05533226 105.8387146 63.95265198 C104.23653587 66.74463155 102.63926946 69.53930761 101.04736328 72.3371582 C97.58389737 78.3902175 93.94323394 84.24850786 90 90 C84.58941263 85.48430684 79.56118559 80.70399065 74.58618164 75.71557617 C73.37032883 74.50235184 73.37032883 74.50235184 72.12991333 73.26461792 C69.47081874 70.6098993 66.81536835 67.95157015 64.16015625 65.29296875 C62.30942663 63.44291299 60.4585486 61.59300568 58.60752869 59.74324036 C54.74005349 55.87757792 50.87467754 52.00982582 47.01049805 48.14086914 C42.53895525 43.66386231 38.06379024 39.19050041 33.58677202 34.71896952 C29.27509176 30.41236272 24.96621409 26.10296343 20.65853691 21.79235268 C18.82554066 19.95868731 16.9917957 18.12577008 15.15730476 16.29360008 C12.60513592 13.74395393 10.05616584 11.19115362 7.50805664 8.63745117 C6.74294266 7.87436142 5.97782867 7.11127167 5.18952942 6.32505798 C4.15714142 5.28844025 4.15714142 5.28844025 3.10389709 4.23088074 C2.50091828 3.6275249 1.89793947 3.02416906 1.27668858 2.40252972 C0 1 0 1 0 0 Z " fill="#000000" transform="translate(278,39)"/>
<path d="M0 0 C46.86 0 93.72 0 142 0 C135.25 7.875 135.25 7.875 132.12747192 10.99278259 C131.42084915 11.70078003 130.71422638 12.40877747 129.9861908 13.13822937 C129.23165115 13.88917374 128.47711151 14.6401181 127.69970703 15.41381836 C126.88928452 16.2243869 126.078862 17.03495544 125.24388123 17.87008667 C122.58422366 20.52905167 119.92104946 23.18446431 117.2578125 25.83984375 C115.40528887 27.69050087 113.55298696 29.54137997 111.70089722 31.39247131 C107.3363152 35.75395677 102.96919248 40.11288886 98.60113037 44.47088867 C93.62448894 49.43631671 88.65071823 54.4046161 83.67717576 59.37314785 C73.45462131 69.58527587 63.22850167 79.79382877 53 90 C50.03952577 87.12080031 47.92377169 84.47575009 45.890625 80.87109375 C45.01857422 79.3396875 45.01857422 79.3396875 44.12890625 77.77734375 C43.50886719 76.67519531 42.88882813 75.57304688 42.25 74.4375 C40.90434146 72.06972923 39.55371345 69.7048051 38.203125 67.33984375 C37.85689087 66.73228241 37.51065674 66.12472107 37.15393066 65.49874878 C33.51267991 59.12023615 29.76040436 52.80886144 26 46.5 C18.7045186 34.24111851 11.55787911 21.90194901 4.46362305 9.52587891 C3.44348248 7.76534942 2.39003537 6.02388017 1.31176758 4.29833984 C0 2 0 2 0 0 Z " fill="#000000" transform="translate(92,39)"/>
<path d="M0 0 C3.71563534 1.23854511 4.59458591 2.69017178 7 5.75 C7.7940625 6.74515625 8.588125 7.7403125 9.40625 8.765625 C9.82777344 9.29478516 10.24929688 9.82394531 10.68359375 10.36914062 C12.90557931 13.12189722 15.20475759 15.80830663 17.5 18.5 C21.62191909 23.34881353 25.66993214 28.25163091 29.6875 33.1875 C32.26146392 36.31799666 34.87569086 39.41172461 37.5 42.5 C41.62101634 47.34959381 45.66991354 52.25160806 49.6875 57.1875 C52.261475 60.31801014 54.87626452 63.41122409 57.5 66.5 C58.88332766 68.1335426 60.26590227 69.7677175 61.64794922 71.40234375 C62.54146366 72.45816869 63.43629812 73.51287811 64.33251953 74.56640625 C65.58228845 76.03882703 66.82258742 77.51926973 68.0625 79 C68.77535156 79.845625 69.48820312 80.69125 70.22265625 81.5625 C72 84 72 84 74 89 C32.75 89 -8.5 89 -51 89 C-49.48496168 84.45488505 -48.23257399 81.39570707 -45.83203125 77.421875 C-45.19378418 76.35686768 -44.55553711 75.29186035 -43.89794922 74.19458008 C-43.55858337 73.63412994 -43.21921753 73.07367981 -42.86956787 72.49624634 C-41.0453508 69.48269113 -39.24087793 66.45732301 -37.43359375 63.43359375 C-37.06232361 62.81356979 -36.69105347 62.19354584 -36.30853271 61.55473328 C-32.59609918 55.34638269 -28.97780213 49.08503183 -25.375 42.8125 C-24.14728267 40.6783007 -22.91941843 38.54418591 -21.69140625 36.41015625 C-21.08699707 35.35973145 -20.48258789 34.30930664 -19.85986328 33.22705078 C-16.69015022 27.72727824 -13.50457189 22.2368197 -10.3125 16.75 C-9.44794189 15.25883667 -9.44794189 15.25883667 -8.56591797 13.73754883 C-5.84024536 9.05830169 -3.07462641 4.45858234 0 0 Z " fill="#000000" transform="translate(437,46)"/>
<path d="M0 0 C3.79660968 1.26553656 4.08805698 2.40119557 6.01171875 5.8359375 C6.59630859 6.86654297 7.18089844 7.89714844 7.78320312 8.95898438 C8.41162109 10.08626953 9.04003906 11.21355469 9.6875 12.375 C11.0416124 14.77048057 12.40213606 17.16230857 13.76171875 19.5546875 C14.28570755 20.47994232 14.28570755 20.47994232 14.82028198 21.42388916 C18.4573141 27.83629026 22.22316581 34.16894428 26 40.5 C33.28654388 52.74525556 40.44370771 65.06069706 47.52148438 77.42773438 C48.44119149 79.02780607 49.36827017 80.62369223 50.30664062 82.21289062 C53 86.79301664 53 86.79301664 53 89 C11.75 89 -29.5 89 -72 89 C-69.7513276 83.37831899 -69.7513276 83.37831899 -67.27734375 80.6171875 C-66.74351074 80.01310059 -66.20967773 79.40901367 -65.65966797 78.78662109 C-65.09135254 78.15578613 -64.52303711 77.52495117 -63.9375 76.875 C-62.75011496 75.53229887 -61.56392174 74.18854286 -60.37890625 72.84375 C-59.79898926 72.18761719 -59.21907227 71.53148438 -58.62158203 70.85546875 C-55.73897022 67.55708728 -52.99909807 64.14540678 -50.2421875 60.7421875 C-47.69746317 57.62999852 -45.10381775 54.56273503 -42.5 51.5 C-39.12711398 47.53100848 -35.78823226 43.5398282 -32.5 39.5 C-29.21176132 35.4601639 -25.87263519 31.46921119 -22.5 27.5 C-14.83131058 18.46917043 -7.37885102 9.26880196 0 0 Z " fill="#000000" transform="translate(73,46)"/>
</svg>
